{"title":"True.Story.2015.BRRip.480p.x264.AAC-VYTO [P2PDL]","uid":12160410,"size":374843027,"categoryP":"video","categoryS":"movies","magnet":"?xt=urn:btih:c4df010b413713330eb7ea32fc11f1171a2fc483&amp;dn=True.Story.2015.BRRip.480p.x264.AAC-VYTO+%5BP2PDL%5D&amp;tr=udp%3A%2F%2Ftracker.openbittorrent.com%3A80&amp;tr=udp%3A%2F%2Fopen.demonii.com%3A1337&amp;tr=udp%3A%2F%2Ftracker.coppersurfer.tk%3A6969&amp;tr=udp%3A%2F%2Fexodus.desync.com%3A6969","seeders":2,"leechers":2,"uploader":"ValidusVyto","files":7,"time":1437896836,"description":"___    ____ ____    ____ .___________.  ______   \n     /   /      /   / |           | /  __    \n    /   /      /   /  `---|  |----`|  |  |  | \n        /     _    _/       |  |     |  |  |  | \n       /        |  |         |  |     |  `--'  | \n    __/         |__|         |__|      ______/  \n                                                  \nPresenting Small Encodes with quality for years!\n                                                                                                   \n                                                                                                   \n\nTrue.Story.2015.BRRip.480p.x264.AAC-VYTO\n\n\nGenre: Drama, Mystery, Thriller &lt;a href=&quot;\nhttp://www.imdb.com/title/tt2273657/&quot; rel=&quot;nofollow&quot; target=&quot;_NEW&quot;&gt;\nhttp://www.imdb.com/title/tt2273657/&lt;/a&gt;\n\n\nGeneral\nFormat                         : MPEG-4\nFile size                      : 351 MiB\nDuration                       : 1h 39mn\nOverall bit rate               : 494 Kbps\n\nVideo\nFormat                         : AVC\nBit rate                       : 459 Kbps\nWidth                          : 720 pixels\nHeight                         : 384 pixels\nDisplay aspect ratio           : 1.85:1\nFrame rate mode                : Constant\nFrame rate                     : 23.976 fps\nBit depth                      : 8 bits\nStream size                    : 326 MiB (93%)\nWriting library                : x264 core 146 r2538\n\nAudio\nFormat                         : AAC\nBit rate mode                  : Variable\nBit rate                       : 31.9 Kbps\nChannel(s)                     : 2 channel\nChannel positions              : Front: L R\nSampling rate                  : 48.0 KHz\nStream size                    : 22.7 MiB (6%)\nLanguage                       : English\n\nSubtitle                       : Yes (English)\nSource                         : 720p.BluRay.x264-GECKOS\n &lt;a href=&quot;\nhttp://ititli.com/c&quot; rel=&quot;nofollow&quot; target=&quot;_NEW&quot;&gt;\nhttp://ititli.com/c&lt;/a&gt; &lt;a href=&quot;\nhttp://ititli.com/i&quot; rel=&quot;nofollow&quot; target=&quot;_NEW&quot;&gt;\nhttp://ititli.com/i&lt;/a&gt; &lt;a href=&quot;\nhttp://ititli.com/p&quot; rel=&quot;nofollow&quot; target=&quot;_NEW&quot;&gt;\nhttp://ititli.com/p&lt;/a&gt; &lt;a href=&quot;\nhttp://ititli.com/D&quot; rel=&quot;nofollow&quot; target=&quot;_NEW&quot;&gt;\nhttp://ititli.com/D&lt;/a&gt; &lt;a href=&quot;\nhttp://ititli.com/a&quot; rel=&quot;nofollow&quot; target=&quot;_NEW&quot;&gt;\nhttp://ititli.com/a&lt;/a&gt; &lt;a href=&quot;\nhttp://ititli.com/b&quot; rel=&quot;nofollow&quot; target=&quot;_NEW&quot;&gt;\nhttp://ititli.com/b&lt;/a&gt; &lt;a href=&quot;\nhttp://ititli.com/z&quot; rel=&quot;nofollow&quot; target=&quot;_NEW&quot;&gt;\nhttp://ititli.com/z&lt;/a&gt; &lt;a href=&quot;\nhttp://ititli.com/I&quot; rel=&quot;nofollow&quot; target=&quot;_NEW&quot;&gt;\nhttp://ititli.com/I&lt;/a&gt; &lt;a href=&quot;\nhttp://ititli.com/O&quot; rel=&quot;nofollow&quot; target=&quot;_NEW&quot;&gt;\nhttp://ititli.com/O&lt;/a&gt; &lt;a href=&quot;\nhttp://ititli.com/X9&quot; rel=&quot;nofollow&quot; target=&quot;_NEW&quot;&gt;\nhttp://ititli.com/X9&lt;/a&gt; &lt;a href=&quot;\nhttp://ititli.com/XX&quot; rel=&quot;nofollow&quot; target=&quot;_NEW&quot;&gt;\nhttp://ititli.com/XX&lt;/a&gt; &lt;a href=&quot;\nhttp://ititli.com/Xq&quot; rel=&quot;nofollow&quot; target=&quot;_NEW&quot;&gt;\nhttp://ititli.com/Xq&lt;/a&gt;\n\n----------------------------------------------------------------------------------------------------\n\n\nEncoder Notes: Looking For Early Access To Anything You Can Provide DVDScr, R5, DVDR, BluRay, Direct\nAudio, Music Releases and Seedboxes. If You Got anything to offer please contact us.\n\nSupport us by donating BC - 1FgwdzPsd1y25Gea8wP1qni35uGCtmkRCD","torrent":{"xt":"urn:btih:c4df010b413713330eb7ea32fc11f1171a2fc483","amp;dn":"True.Story.2015.BRRip.480p.x264.AAC-VYTO+%5BP2PDL%5D","amp;tr":["udp%3A%2F%2Ftracker.openbittorrent.com%3A80","udp%3A%2F%2Fopen.demonii.com%3A1337","udp%3A%2F%2Ftracker.coppersurfer.tk%3A6969","udp%3A%2F%2Fexodus.desync.com%3A6969"],"infoHash":"c4df010b413713330eb7ea32fc11f1171a2fc483","infoHashBuffer":{"type":"Buffer","data":[196,223,1,11,65,55,19,51,14,183,234,50,252,17,241,23,26,47,196,131]},"announce":[],"urlList":[]}}